<svg id="Capa_1" enable-background="new 0 0 512 512" height="512" viewBox="0 0 512 512" width="512" xmlns="http://www.w3.org/2000/svg"><g><g><path d="m406.142 493.297 9-37.014v-38.104c0-37.884-20.797-72.711-54.15-90.677h-195.465c-33.353 17.967-54.15 52.793-54.15 90.677v75.118l151.898 9z" fill="#8dd7f7"/><path d="m322.973 493.297h-211.596v13.582c0 2.761 2.239 5.121 5 5.121h55.008l7.743-9 7.743 9h59.681l16.723-9.703 22.924 9.703h67.721l2.427-9.412z" fill="#67d0f4"/><path d="m125.216 100.251c-23.423 45.503 9.017 81.442 9.017 81.442h258.055s27.062-33.636 3.639-79.138c0 0 .71.374 13.703 10.95 2.816 2.292 7.053.923 7.999-2.582 4.205-15.584 7.667-54.062-45.397-86.701-39.472-24.279-78.254-12.672-78.254-12.672s-47.56-29.236-118.527 5.323c-56.932 27.724-68.242 66.116-70.437 82.225-.494 3.621 2.953 6.519 6.443 5.434z" fill="#5a5b77"/><path d="m217.39 291.02 13.935 30.808 31.935 30.807 31.935-30.807 13.935-30.808z" fill="#ebbaa1"/><path d="m134.635 180.382c0 19.339 14.897 29.095 27.878 29.095l12.938-11.999 9-17.096-9-17.096c-3.905-1.918-8.295-2.999-12.938-2.999-12.982 0-23.989 8.421-27.878 20.095z" fill="#ebbaa1"/><path d="m134.635 180.382c-.973 2.921-1.508 6.043-1.508 9.291 0 16.229 13.157 29.386 29.386 29.386 4.644 0 9.034-1.081 12.938-2.999l9-9.644-9-8.938c-3.905 1.918-8.295 2.999-12.938 2.999-12.982 0-23.989-8.421-27.878-20.095z" fill="#e8a990"/><path d="m391.884 180.382c0 19.339-14.897 29.095-27.878 29.095l-12.938-11.999-9-17.096 9-17.096c3.905-1.918 8.295-2.999 12.938-2.999 12.982 0 23.989 8.421 27.878 20.095z" fill="#ebbaa1"/><path d="m391.884 180.382c.973 2.921 1.508 6.043 1.508 9.291 0 16.229-13.156 29.386-29.386 29.386-4.644 0-9.034-1.081-12.938-2.999l-9-9.644 9-8.938c3.905 1.918 8.295 2.999 12.938 2.999 12.982 0 23.989-8.421 27.878-20.095z" fill="#e8a990"/><path d="m263.26 294.361c48.496 0 87.809-32.805 87.809-96.809v-34.266c0-18.807-2.317-32.35-4.806-41.473-1.219-4.467-7.391-5.01-9.332-.806-4.28 9.272-12.018 16.975-19.11 22.582-3.806 3.009-9.249-.653-7.887-5.31 6.786-23.199-2.059-51.374-19.218-54.156-12.384-2.008-19.647 3.569-23.558 8.594-1.964 2.523-5.831 2.523-7.795 0-3.911-5.025-11.174-10.602-23.558-8.594-17.159 2.783-26.004 30.957-19.218 54.156 1.362 4.657-4.081 8.319-7.887 5.31-7.092-5.607-14.83-13.31-19.11-22.582-1.94-4.204-8.113-3.66-9.332.806-2.489 9.123-4.806 22.666-4.806 41.473v34.266c-.001 64.004 39.312 96.809 87.808 96.809z" fill="#fdd4bb"/><path d="m262.348 372.051c0 23.052 18.409 36.038 35.308 36.038s35.308-12.986 35.308-36.038c-4.195-15.573-18.409-27.038-35.309-27.038-16.897-.001-31.112 11.464-35.307 27.038z" fill="#eef2f5"/><path d="m297.657 399.089c-16.899 0-31.113-11.465-35.308-27.038-.819 3.04-1.263 6.234-1.263 9.533 0 20.198 16.374 36.571 36.571 36.571 20.198 0 36.571-16.374 36.571-36.571 0-3.299-.444-6.493-1.263-9.533-4.195 15.573-18.409 27.038-35.308 27.038z" fill="#deeaf3"/><path d="m308.779 421.22 12.53 43.186 36.556 31.076 42.106 16.427 10.182-.02c2.758-.005 4.99-2.242 4.99-5v-50.607z" fill="#b0f0ff"/><path d="m244.805 430.364c0 24.351 17.26 37.112 34.556 40.336 21.428 3.993 47.788-6.294 47.788-35.247-4.801-10.492-18.824-15.603-35.894-18.784-22.021-4.104-41.204-3.531-46.45 13.695z" fill="#fdd4bb"/><g><path d="m321.308 464.406-23.475 13.697 56.087 33.897 46.051-.091z" fill="#92eaf4"/></g><path d="m250.565 493.297 12.71 9 29.325-9 5.233-15.194-41.573-11.179z" fill="#5a5b77"/><path d="m250.565 493.297-4.013 18.703h39.647l6.401-18.703z" fill="#495160"/><path d="m186.871 493.297v-46.743c0-4.276-3.467-7.743-7.743-7.743s-7.743 3.467-7.743 7.743v46.743l7.743 9.291z" fill="#4ac4e5"/><path d="m171.385 493.297h15.485v18.703h-15.485z" fill="#2ab7d8"/><path d="m155.78 306.499 45.092 20.56 45.292 2.611-28.773-38.65-.001-.007s-31.74-33.783-31.727-33.781l-.013-.001c-.002-.001-32.924 21.791-29.87 49.268z" fill="#b0f0ff"/><path d="m155.78 306.499c.749 6.738 3.653 13.818 9.747 21.002l97.733 25.134-17.097-22.965z" fill="#92eaf4"/><path d="m370.74 306.499-45.091 20.56-45.292 2.611 28.773-38.65.001-.007s31.74-33.783 31.727-33.781l.013-.001c0-.001 32.923 21.791 29.869 49.268z" fill="#b0f0ff"/><path d="m370.74 306.499c-.749 6.738-3.653 13.818-9.747 21.002l-97.733 25.134 17.097-22.965z" fill="#92eaf4"/><g><path d="m263.26 285.361c-48.495 0-87.809-39.313-87.809-87.809v18.582c0 48.495 39.313 87.809 87.809 87.809 48.496 0 87.809-39.313 87.809-87.809v-18.582c0 48.495-39.314 87.809-87.809 87.809z" fill="#f7c4a8"/></g><path d="m279.361 459.645c-17.296-3.223-30.46-15.074-34.556-29.281-.306 1.006-.573 2.058-.782 3.18-3.79 20.335 12.032 40.34 35.338 44.684 23.306 4.343 45.272-8.62 49.062-28.954 1.014-5.441.48-9.987-1.274-13.821-6.077 17.544-26.36 28.186-47.788 24.192z" fill="#f7c4a8"/></g><g><path d="m217.922 361.726c-3.412-2.59-8.281-1.923-10.871 1.492-.15.197-3.694 4.898-6.887 11.603-4.513 9.476-6.193 18.233-4.994 26.025.59 3.836 3.895 6.58 7.659 6.58.392 0 .79-.03 1.19-.091 4.235-.651 7.141-4.613 6.489-8.849-1.471-9.559 5.932-21.931 8.913-25.898 2.582-3.413 1.913-8.274-1.499-10.862z" fill="#eef2f5"/><path d="m302.258 206.416c4.285 0 7.759-3.474 7.759-7.759v-14.253c0-4.285-3.474-7.759-7.759-7.759s-7.759 3.474-7.759 7.759v14.253c0 4.285 3.474 7.759 7.759 7.759z" fill="#5a5b77"/><path d="m224.293 206.416c4.285 0 7.759-3.474 7.759-7.759v-14.253c0-4.285-3.474-7.759-7.759-7.759s-7.759 3.474-7.759 7.759v14.253c0 4.285 3.474 7.759 7.759 7.759z" fill="#5a5b77"/><g fill="#f95750"><path d="m441.269 231.735c-4.647-1.088-9.456 2.825-9.336 7.597v44.418c-5.766 1.247-10.102 6.382-10.102 12.516 0 7.063 5.747 12.81 12.81 12.81 6.795 0 12.356-5.323 12.77-12.015.027-.261.04-.527.04-.795v-45.672c5.459 3.077 11.269 8.417 11.269 17.205 0 4.285 3.474 7.759 7.759 7.759s7.759-3.474 7.759-7.759c.001-23.113-21.565-33.697-32.969-36.064z"/><path d="m103.449 284.255c.124-4.859-4.852-8.792-9.549-7.55l-40.069 9.497c-3.499.829-5.97 3.954-5.97 7.55v34.294c-5.766 1.247-10.101 6.382-10.101 12.516 0 7.063 5.747 12.81 12.81 12.81 6.795 0 12.356-5.322 12.77-12.015.027-.261.04-41.469.04-41.469l24.55-5.819v26.402c-5.766 1.247-10.101 6.382-10.101 12.515 0 7.064 5.747 12.81 12.81 12.81 6.795 0 12.356-5.322 12.77-12.016.026-.261.04-49.525.04-49.525z"/><path d="m263.275 261.556c22.728 0 29.95-16.905 29.95-16.905.467-.998.724-2.113.724-3.288 0-4.286-3.474-7.759-7.759-7.759-3.305 0-6.127 2.068-7.245 4.979-.358.763-3.844 7.455-15.669 7.455s-15.311-6.692-15.669-7.455c-1.118-2.912-3.94-4.979-7.245-4.979-4.285 0-7.759 3.474-7.759 7.759 0 1.175.256 2.29.724 3.288-.002 0 7.22 16.905 29.948 16.905z"/></g></g></g></svg>