<svg id="Capa_1" enable-background="new 0 0 512 512" height="512" viewBox="0 0 512 512" width="512" xmlns="http://www.w3.org/2000/svg"><g><g><path d="m111.377 493.297 158.199 9 136.566-9 9-37.014v-34.889c0-62.291-41.798-116.833-101.947-133.029h-99.87c-60.149 16.196-101.947 70.738-101.947 133.029v71.903z" fill="#b1e6a0"/><path d="m384.915 98.895c-5.86-33.113-29.142-98.895-121.655-98.895s-115.795 65.782-121.655 98.895l121.655 9z" fill="#f3584d"/><path d="m141.605 98.895c-1.971 11.137-1.973 18.583-1.973 18.583l123.628 9 123.628-9s-.002-7.445-1.973-18.583z" fill="#e84642"/><g fill="#e5907b"><path d="m175.451 163.286s-31.347 3.488-31.347 3.488c-7.683-26.424-4.473-49.296-4.473-49.296h35.82l9 24.648z"/><path d="m351.068 163.286s31.347 3.488 31.347 3.488c7.683-26.424 4.473-49.296 4.473-49.296h-35.819l-9 24.648z"/><path d="m263.26 39.187c-25.333 0-45.87 20.537-45.87 45.87l45.87 9 45.87-9c0-25.333-20.537-45.87-45.87-45.87z"/></g><path d="m217.39 85.057h91.74v13.838l-45.87 9-45.87-9z" fill="#cb3541"/><path d="m217.39 98.895h91.74v18.583h-91.74z" fill="#b53939"/><path d="m162.513 209.477 12.939-11.999 9-17.096-9-17.096c-3.905-1.918-8.295-2.999-12.939-2.999-12.981 0-23.988 8.421-27.878 20.095 0 19.339 14.896 29.095 27.878 29.095z" fill="#ebbaa1"/><path d="m134.635 180.382c-.973 2.921-1.508 6.043-1.508 9.291 0 16.23 13.156 29.386 29.386 29.386 4.644 0 9.034-1.081 12.938-2.999l9-9.686-9-8.897c-3.905 1.918-8.295 2.999-12.938 2.999-12.982.001-23.989-8.42-27.878-20.094z" fill="#e8a990"/><path d="m364.007 209.477-12.939-11.999-9-17.096 9-17.096c3.905-1.918 8.295-2.999 12.939-2.999 12.981 0 23.988 8.421 27.878 20.095 0 19.339-14.897 29.095-27.878 29.095z" fill="#ebbaa1"/><path d="m391.885 180.382c.973 2.921 1.508 6.043 1.508 9.291 0 16.23-13.156 29.386-29.386 29.386-4.644 0-9.034-1.081-12.938-2.999l-9-9.686 9-8.897c3.905 1.918 8.294 2.999 12.938 2.999 12.981.001 23.988-8.42 27.878-20.094z" fill="#e8a990"/><path d="m263.259 294.361c48.491 0 87.809-35.372 87.809-96.796v-34.278-45.809l-33.648 9-25.673-9h-24.967l-29.715 9-25.088-9h-36.528v80.081c.002 66.444 39.317 96.802 87.81 96.802z" fill="#fdd4bb"/><path d="m263.26 285.361c-48.495 0-87.807-39.312-87.809-87.807v18.58c0 48.495 39.313 87.809 87.809 87.809 48.496 0 87.809-39.313 87.809-87.809v-18.578c-.003 48.494-39.315 87.805-87.809 87.805z" fill="#f7c4a8"/><path d="m262.348 372.051c0 21.568 18.409 36.038 35.308 36.038s35.308-15.36 35.308-36.038c-4.195-15.574-18.409-27.038-35.308-27.038-16.898 0-31.113 11.464-35.308 27.038z" fill="#eef2f5"/><path d="m297.657 399.089c-16.899 0-31.113-11.465-35.308-27.038-.819 3.04-1.263 6.234-1.263 9.533 0 20.198 16.374 36.571 36.571 36.571 20.198 0 36.571-16.374 36.571-36.571 0-3.299-.444-6.493-1.263-9.533-4.195 15.573-18.409 27.038-35.308 27.038z" fill="#deeaf3"/><path d="m263.26 303.943c-14.24 0-27.675-3.411-39.568-9.427-2.105 5.061-3.272 10.611-3.272 16.434 0 23.66 19.18 42.84 42.84 42.84s42.84-19.18 42.84-42.84c0-5.823-1.167-11.373-3.272-16.434-11.894 6.016-25.329 9.427-39.568 9.427z" fill="#ebbaa1"/><path d="m266.782 117.478s-15.731 29.348-53.415 37.269c-4.057.853-7.294-3.335-5.515-7.08 3.306-6.958 6.528-17.622 4.127-30.189z" fill="#e5907b"/><path d="m351.069 117.478s-15.94 35.643-62.152 36.673c-3.891.087-6.41-4.091-4.479-7.471 3.863-6.76 8.464-17.543 7.311-29.203h59.32z" fill="#e5907b"/><ellipse cx="263.26" cy="241.531" fill="#f95750" rx="17.253" ry="22.472"/><path d="m308.779 421.22 12.53 43.186 40.319 33.348 38.343 14.155 10.182-.02c2.758-.005 4.99-2.242 4.99-5v-50.607z" fill="#ebbaa1"/><path d="m322.973 493.297h-211.596v13.582c0 2.761 2.238 5 5 5h55.008l7.743-9 7.743 9h59.681l23.024-9.582 16.623 9.582h67.522l-6.374-9.291z" fill="#96d5a9"/><g><path d="m321.308 464.406-23.475 13.697 56.087 33.897 46.051-.091z" fill="#e8a990"/></g><path d="m250.565 493.297 19.011 9 23.024-9 5.233-15.194-41.573-11.18z" fill="#5a5b77"/><path d="m250.565 493.297-4.013 18.582h39.647l6.401-18.582z" fill="#495160"/><path d="m186.871 493.297v-46.743c0-4.276-3.467-7.743-7.743-7.743s-7.743 3.467-7.743 7.743v46.743l7.743 9.291z" fill="#83cc96"/><path d="m171.385 493.297h15.485v18.582h-15.485z" fill="#79ba88"/><path d="m244.805 430.364c0 19.97 17.26 35.058 34.556 38.281 21.428 3.993 47.788-11.159 47.788-33.193-4.801-10.492-18.824-15.603-35.894-18.784-22.021-4.103-41.204-3.53-46.45 13.696z" fill="#fdd4bb"/><path d="m279.361 459.645c-17.296-3.223-30.46-15.074-34.556-29.281-.306 1.006-.573 2.058-.782 3.18-3.79 20.334 12.032 40.34 35.338 44.684 23.306 4.343 45.272-8.62 49.062-28.954 1.014-5.441.48-9.987-1.274-13.821-6.077 17.543-26.36 28.186-47.788 24.192z" fill="#f7c4a8"/></g><g><path d="m441.293 231.697c-4.65-1.088-9.456 2.825-9.338 7.598v44.424c-5.766 1.247-10.103 6.383-10.103 12.517 0 7.064 5.747 12.812 12.811 12.812 6.796 0 12.358-5.323 12.772-12.017.027-.261.04-.527.04-.795v-45.629c.489.276.982.57 1.475.883 6.592 4.187 9.797 9.51 9.797 16.276 0 4.286 3.474 7.76 7.76 7.76s7.76-3.474 7.76-7.76c.001-23.116-21.569-33.702-32.974-36.069z" fill="#8dd7f7"/><path d="m103.429 284.224c.125-4.859-4.852-8.794-9.55-7.551l-40.074 9.498c-3.5.83-5.971 3.955-5.971 7.551v34.298c-5.767 1.247-10.103 6.383-10.103 12.517 0 7.064 5.747 12.811 12.812 12.811 6.796 0 12.357-5.323 12.771-12.017.027-.261.04-41.475.04-41.475l24.553-5.82v26.405c-5.766 1.247-10.103 6.383-10.103 12.517 0 7.065 5.747 12.812 12.812 12.812 6.796 0 12.358-5.323 12.771-12.017.028-.259.042-49.529.042-49.529z" fill="#8dd7f7"/><g fill="#5a5b77"><path d="m302.264 206.374c4.286 0 7.76-3.475 7.76-7.76v-14.255c0-4.286-3.474-7.76-7.76-7.76s-7.76 3.475-7.76 7.76v14.255c-.001 4.286 3.473 7.76 7.76 7.76z"/><path d="m224.289 176.599c-4.286 0-7.76 3.475-7.76 7.76v14.255c0 4.286 3.474 7.76 7.76 7.76s7.76-3.475 7.76-7.76v-14.255c0-4.285-3.474-7.76-7.76-7.76z"/></g></g></g></svg>